<svg data-v-0dd9719b="" version="1.0" xmlns="http://www.w3.org/2000/svg" xmlns:xlink="http://www.w3.org/1999/xlink" width="100%" height="100%" viewBox="0 0 340.000000 250.000000" preserveAspectRatio="xMidYMid meet" color-interpolation-filters="sRGB" style="margin: auto;"> <rect data-v-0dd9719b="" x="0" y="0" width="100%" height="100%" fill="#fff" fill-opacity="1" class="background"></rect> <rect data-v-0dd9719b="" x="0" y="0" width="100%" height="100%" fill="url(#watermark)" fill-opacity="1" class="watermarklayer"></rect> <g data-v-0dd9719b="" fill="#445665" class="icon-text-wrapper icon-svg-group iconsvg" transform="translate(49.144996643066406,103.41374969482422)"><g class="iconsvg-imagesvg" transform="translate(0,0.6545085906982422)"><g><rect fill="#445665" fill-opacity="0" stroke-width="2" x="0" y="0" width="60" height="41.86348318134563" class="image-rect"></rect> <svg x="0" y="0" width="60" height="41.86348318134563" filtersec="colorsb2397453398" class="image-svg-svg primary" style="overflow: visible;"><svg xmlns="http://www.w3.org/2000/svg" viewBox="-0.0026702880859375 0 138.72267150878906 96.79000091552734"><g><g><path fill="#6f8397" d="M94.71 48.44L138.72.09h-33.7l-44 48.35L80.1 96.79h33.69L94.71 48.44zM43.23 96.7H15.01L39.94 0l23.8 17.14L43.23 96.7z"></path><path d="M62.46 22.11H34.24l-3.36 13c15.87-3.1 29.15-3.63 27.55 2.57z" fill="#445665"></path><path d="M58.43 37.72s2.55-9.5-12.28-9.5H25.83C-5.56 28.22.46 0 .46 0h52.08c10.73 0 14.53 4.22 12 13.89z" fill="#f30"></path></g></g></svg></svg> <!----></g></g> <g transform="translate(67,0)"><g data-gra="path-name" fill-rule="" class="tp-name iconsvg-namesvg" transform="translate(0,0)"><g transform="scale(1)"><g><path d="M31.82-22.46L31.82-13.32Q31.82-11.95 30.89-11.02 29.95-10.08 28.58-10.08L28.58-10.08 4.54-10.08 4.54-21.67 28.98-21.67 28.98-22.46 31.82-22.46ZM28.98-18.86L7.38-18.86 7.38-17.28 28.98-17.28 28.98-18.86ZM7.38-14.47L7.38-12.89 28.58-12.89Q28.98-12.89 28.98-13.32L28.98-13.32 28.98-14.47 7.38-14.47ZM16.38 0.58L16.78 3.38 3.2 5.44 3.2-8.39 6.01-8.39 6.01-5.9 16.52-5.9 16.52-3.06 6.01-3.06 6.01 2.16 16.38 0.58ZM21.6-8.6L21.6-4.36Q23.83-4.72 25.79-5.33 27.76-5.94 29.21-6.52 30.67-7.09 31.52-7.52 32.36-7.96 32.4-7.96L32.4-7.96 33.73-5.47Q33.66-5.44 32.69-4.95 31.72-4.46 30.08-3.83 28.44-3.2 26.26-2.54 24.08-1.87 21.6-1.51L21.6-1.51 21.6 2.3 30.82 2.3Q31.25 2.3 31.25 1.91L31.25 1.91 31.25-0.04 34.06-0.04 34.06 1.91Q34.06 3.28 33.12 4.21 32.18 5.15 30.82 5.15L30.82 5.15 18.76 5.15 18.76-8.6 21.6-8.6ZM50.76-21.24L50.76-0.9Q50.76 0.47 49.82 1.4 48.89 2.34 47.56 2.34L47.56 2.34 38.81 2.34 38.81-20.34 47.95-20.34 47.95-21.24 50.76-21.24ZM47.95-17.5L41.65-17.5 41.65-11.05 47.95-11.05 47.95-17.5ZM41.65-8.21L41.65-0.47 47.56-0.47Q47.95-0.47 47.95-0.9L47.95-0.9 47.95-8.21 41.65-8.21ZM51.62 4.64L50.29 4.07Q50.29 4.03 50.76 2.83 51.23 1.62 51.79-0.27 52.34-2.16 52.79-4.46 53.24-6.77 53.24-9.04L53.24-9.04 53.24-21.78 66.46-21.78 66.46-22.54 69.3-22.54 69.3 1.69Q69.3 3.06 68.36 4 67.43 4.93 66.06 4.93L66.06 4.93 62.68 4.93 62.68 2.09 66.06 2.09Q66.46 2.09 66.46 1.69L66.46 1.69 66.46-3.6 55.51-3.6Q55.19-1.87 54.76-0.31 54.32 1.26 53.93 2.45 53.53 3.64 53.24 4.37 52.96 5.11 52.92 5.18L52.92 5.18 51.62 4.64ZM55.94-6.44L66.46-6.44 66.46-11.41 56.09-11.41 56.09-9.04Q56.09-8.39 56.05-7.74 56.02-7.09 55.94-6.44L55.94-6.44ZM66.46-18.94L56.09-18.94 56.09-14.22 66.46-14.22 66.46-18.94ZM103.64-5.15L103.64 2.16 105.91 2.16 105.91 5 73.91 5 73.91 2.16 76.32 2.16 76.32-4.46 100.84-4.46 100.84-5.15 103.64-5.15ZM100.84 2.16L100.84-1.66 95.65-1.66 95.65 2.16 100.84 2.16ZM92.81 2.16L92.81-1.66 87.26-1.66 87.26 2.16 92.81 2.16ZM79.13-1.66L79.13 2.16 84.46 2.16 84.46-1.66 79.13-1.66ZM76.93-5.22L74.7-6.98Q76.07-8.71 76.91-10.58 77.76-12.46 78.23-14.2 78.7-15.95 78.86-17.42 79.02-18.9 79.06-19.87L79.06-19.87 76.39-19.87 76.39-22.68 102.85-22.68 102.85-20.09 98.96-16.27 101.63-16.27 101.63-16.85 104.44-16.85 104.44-16.27 104.44-14.83 104.44-9.29Q104.44-7.92 103.5-6.98 102.56-6.05 101.2-6.05L101.2-6.05 96.91-6.05 96.91-8.89 101.2-8.89Q101.63-8.89 101.63-9.29L101.63-9.29 101.63-13.43 94.39-13.43 94.39-15.77 98.57-19.87 81.9-19.87Q81.86-18.79 81.68-17.12 81.5-15.44 80.96-13.46 80.42-11.48 79.45-9.34 78.48-7.2 76.93-5.22L76.93-5.22ZM81.72-5.8L80.82-8.5Q82.19-8.93 83.3-9.43 84.42-9.94 85.36-10.44L85.36-10.44 82.19-12.35 83.59-14.76 87.95-12.2Q89.06-13.1 89.73-13.9 90.4-14.69 90.76-15.23L90.76-15.23 82.94-15.23 82.94-18.07 91.15-18.07 91.15-18.54 94-18.54 94-15.34 93.89-15.08Q93.89-15.01 93.71-14.65 93.53-14.29 93.13-13.7 92.74-13.1 92.11-12.33 91.48-11.56 90.54-10.69L90.54-10.69 95.18-7.99 93.74-5.54 88.13-8.82Q86.87-7.99 85.28-7.22 83.7-6.44 81.72-5.8L81.72-5.8ZM109.69-10.69L111.49-10.84 111.49-19.48 109.87-19.48 109.87-22.32 126.72-22.32 126.72-19.48 124.81-19.48 124.81-11.88 126.72-12.02 126.94-9.22 124.81-9.04 124.81-7.92 122-7.92 122-8.82 109.91-7.88 109.69-10.69ZM114.3-15.88L114.3-14.98 122-14.98 122-15.88 114.3-15.88ZM122-19.48L114.3-19.48 114.3-18.68 122-18.68 122-19.48ZM114.3-12.13L114.3-11.05 122-11.66 122-12.13 114.3-12.13ZM137.52-13.25L142.09-10.51 140.62-8.1 135-11.45Q133.63-10.55 131.9-9.74 130.18-8.93 128.02-8.21L128.02-8.21 127.15-10.91Q128.66-11.41 129.92-11.95 131.18-12.49 132.23-13.1L132.23-13.1 127.84-15.73 129.28-18.14 134.89-14.8Q136.69-16.16 137.65-17.32 138.6-18.47 138.89-18.97L138.89-18.97 127.87-18.97 127.87-21.78 138.92-21.78 138.92-22.43 141.73-22.43 141.73-18.29 141.59-18Q141.55-17.93 141.34-17.53 141.12-17.14 140.63-16.49 140.15-15.84 139.37-14.99 138.6-14.15 137.52-13.25L137.52-13.25ZM137.45-8.42L138.56-5.83Q138.49-5.8 137.83-5.53 137.16-5.26 136.13-4.93 135.11-4.61 133.87-4.36 132.62-4.1 131.4-4.1L131.4-4.1 131.11-4.1Q131.58-3.56 132.25-2.88 132.91-2.2 133.85-1.48L133.85-1.48 138.38-4.36 139.9-1.94 136.4 0.29Q137.45 0.9 138.65 1.46 139.86 2.02 141.26 2.52L141.26 2.52 140.36 5.18Q137.16 4.07 134.87 2.66 132.59 1.26 131.08-0.09 129.56-1.44 128.74-2.54 127.91-3.64 127.66-4.1L127.66-4.1 127.4-4.1 127.4 5.29 124.6 5.29 124.6 1.87Q124.09 2.05 122.85 2.48 121.61 2.92 119.83 3.4 118.04 3.89 115.78 4.39 113.51 4.9 110.92 5.26L110.92 5.26 110.56 2.45Q113.33 2.09 115.76 1.51 118.19 0.94 119.97 0.41 121.75-0.11 122.8-0.49 123.84-0.86 123.84-0.86L123.84-0.86 124.6 0.97 124.6-4.1 122.29-4.1 123.12-1.98Q123.05-1.94 122.09-1.6 121.14-1.26 119.56-0.79 117.97-0.32 115.85 0.16 113.72 0.65 111.31 0.97L111.31 0.97 110.92-1.8Q114.08-2.23 116.64-2.92 119.2-3.6 120.67-4.1L120.67-4.1 113.04-4.1 113.04-6.95 131.4-6.95Q132.41-6.95 133.47-7.18 134.53-7.42 135.41-7.69 136.3-7.96 136.87-8.19 137.45-8.42 137.45-8.42L137.45-8.42ZM153.43-16.78L146.2-19.8 147.28-22.39 154.51-19.37 153.43-16.78ZM146.92 5.54L145.62 3.06Q147.71 1.98 148.86 0.72 150.01-0.54 150.55-1.58 151.09-2.63 151.18-3.35 151.27-4.07 151.27-4.07L151.27-4.07 151.27-12.6 146.09-12.6 146.09-15.44 154.12-15.44 154.12-4.07Q154.12-4 154.08-3.6 154.04-3.2 153.9-2.56 153.76-1.91 153.41-1.06 153.07-0.22 152.5 0.72L152.5 0.72Q152.82 0.97 153.27 1.28 153.72 1.58 154.31 1.84 154.91 2.09 155.61 2.27 156.31 2.45 157.1 2.45L157.1 2.45 177.91 2.45 177.91 5.29 157.1 5.29Q155.99 5.29 155.02 5.06 154.04 4.82 153.23 4.46 152.42 4.1 151.78 3.69 151.13 3.28 150.7 2.92L150.7 2.92Q149.98 3.6 149.04 4.27 148.1 4.93 146.92 5.54L146.92 5.54ZM168.19-15.01L168.66-14.65 173.48-14.65 173.48-15.3 176.33-15.3 176.33-1.8Q176.33-0.43 175.37 0.5 174.42 1.44 173.09 1.44L173.09 1.44 170.89 1.44 170.89-1.4 173.09-1.4Q173.48-1.4 173.48-1.8L173.48-1.8 173.48-2.81 167.65-2.81 167.65 1.44 164.81 1.44 164.81-2.81 158.83-2.81 158.83 1.44 155.99 1.44 155.99-14.65 164.05-14.65 161.46-16.63 163.22-18.86 165.78-16.88 170.14-19.33 155.92-19.33 155.92-22.14 176.33-22.14 176.33-19.51 168.19-15.01ZM164.81-11.81L158.83-11.81 158.83-10.22 164.81-10.22 164.81-11.81ZM158.83-5.62L164.81-5.62 164.81-7.42 158.83-7.42 158.83-5.62ZM167.65-5.62L173.48-5.62 173.48-7.42 167.65-7.42 167.65-5.62ZM173.48-10.22L173.48-11.81 167.65-11.81 167.65-10.22 173.48-10.22Z" transform="translate(-3.200000047683716, 22.68000030517578)"></path></g> <!----> <!----> <!----> <!----> <!----> <!----> <!----></g></g> <g data-gra="path-slogan" fill-rule="" class="tp-slogan iconsvg-slogansvg" fill="#445665" transform="translate(19.150001525878906,34.220001220703125)"><!----> <!----> <g transform="scale(1, 1)"><g transform="scale(1)"><path d="M3.42-4.31L2.06-3.05L2.06 0L0.89 0L0.89-8.58L2.06-8.58L2.06-4.41L6.23-8.58L7.88-8.58L4.27-5.11L7.97 0L6.42 0L3.42-4.31ZM14.53-3.19L14.53-8.58L15.70-8.58L15.70-3.05Q15.56 0.05 12.19 0.14L12.19 0.14Q9.05 0.05 8.91-2.86L8.91-2.86L8.91-8.58L10.08-8.58L10.08-3.19Q10.13-0.84 12.23-0.80L12.23-0.80Q14.53-0.84 14.53-3.19L14.53-3.19ZM18.89-8.58L23.20-1.64L23.20-8.58L24.33-8.58L24.33 0L23.02 0L18.66-6.94L18.61-6.94L18.61 0L17.48 0L17.48-8.58L18.89-8.58ZM34.36-8.58L34.36 0L33.23 0L33.23-5.06Q33.23-5.77 33.23-7.22L33.23-7.22L30.80 0L29.63 0L27.23-7.22L27.19-7.22Q27.19-6.70 27.23-5.67L27.23-5.67Q27.23-5.16 27.23-5.06L27.23-5.06L27.23 0L26.06 0L26.06-8.58L27.75-8.58L30.23-1.31L32.67-8.58L34.36-8.58ZM36.23-8.58L37.41-8.58L37.41 0L36.23 0L36.23-8.58ZM40.78-8.58L45.09-1.64L45.09-8.58L46.22-8.58L46.22 0L44.91 0L40.55-6.94L40.50-6.94L40.50 0L39.38 0L39.38-8.58L40.78-8.58ZM54.42-3.61L51.80-3.61L51.80-4.59L55.55-4.59L55.55 0L54.80 0L54.52-1.08Q53.53 0.09 51.70 0.14L51.70 0.14Q49.97 0.14 49.03-0.75L49.03-0.75Q47.63-2.06 47.67-4.36L47.67-4.36Q48-8.63 51.75-8.81L51.75-8.81Q54.94-8.63 55.41-6L55.41-6L54.28-6Q53.81-7.78 51.70-7.83L51.70-7.83Q49.03-7.64 48.89-4.31L48.89-4.31Q48.89-0.75 51.75-0.75L51.75-0.75Q52.78-0.75 53.53-1.31L53.53-1.31Q54.47-2.06 54.42-3.61L54.42-3.61ZM67.59-8.58L64.36-3.47L64.36 0L63.19 0L63.19-3.47L59.95-8.58L61.31-8.58L63.75-4.45L66.23-8.58L67.59-8.58ZM68.81-8.58L69.98-8.58L69.98 0L68.81 0L68.81-8.58ZM73.36-8.58L77.67-1.64L77.67-8.58L78.80-8.58L78.80 0L77.48 0L73.13-6.94L73.08-6.94L73.08 0L71.95 0L71.95-8.58L73.36-8.58ZM87-3.61L84.38-3.61L84.38-4.59L88.13-4.59L88.13 0L87.38 0L87.09-1.08Q86.11 0.09 84.28 0.14L84.28 0.14Q82.55 0.14 81.61-0.75L81.61-0.75Q80.20-2.06 80.25-4.36L80.25-4.36Q80.58-8.63 84.33-8.81L84.33-8.81Q87.52-8.63 87.98-6L87.98-6L86.86-6Q86.39-7.78 84.28-7.83L84.28-7.83Q81.61-7.64 81.47-4.31L81.47-4.31Q81.47-0.75 84.33-0.75L84.33-0.75Q85.36-0.75 86.11-1.31L86.11-1.31Q87.05-2.06 87-3.61L87-3.61ZM89.20-1.92L89.20-2.77L90.28-2.77L90.28-2.16Q90.28-0.75 91.59-0.75L91.59-0.75Q92.95-0.75 92.95-2.25L92.95-2.25L92.95-8.58L94.13-8.58L94.13-2.30Q94.08 0.09 91.64 0.14L91.64 0.14Q89.34 0.09 89.20-1.92L89.20-1.92ZM101.58-3.19L101.58-8.58L102.75-8.58L102.75-3.05Q102.61 0.05 99.23 0.14L99.23 0.14Q96.09 0.05 95.95-2.86L95.95-2.86L95.95-8.58L97.13-8.58L97.13-3.19Q97.17-0.84 99.28-0.80L99.28-0.80Q101.58-0.84 101.58-3.19L101.58-3.19ZM106.73-7.59L103.83-7.59L103.83-8.58L110.77-8.58L110.77-7.59L107.86-7.59L107.86 0L106.73 0L106.73-7.59ZM118.59-4.27L118.59-4.27Q118.41-7.64 115.59-7.83L115.59-7.83Q112.73-7.69 112.59-4.27L112.59-4.27Q112.73-0.94 115.59-0.80L115.59-0.80Q118.41-0.98 118.59-4.27ZM119.77-4.27L119.77-4.27Q119.48 0 115.59 0.14L115.59 0.14Q111.66 0 111.38-4.27L111.38-4.27Q111.61-8.72 115.59-8.81L115.59-8.81Q119.48-8.67 119.77-4.27ZM122.53-8.58L126.84-1.64L126.84-8.58L127.97-8.58L127.97 0L126.66 0L122.30-6.94L122.25-6.94L122.25 0L121.13 0L121.13-8.58L122.53-8.58ZM136.17-3.61L133.55-3.61L133.55-4.59L137.30-4.59L137.30 0L136.55 0L136.27-1.08Q135.28 0.09 133.45 0.14L133.45 0.14Q131.72 0.14 130.78-0.75L130.78-0.75Q129.38-2.06 129.42-4.36L129.42-4.36Q129.75-8.63 133.50-8.81L133.50-8.81Q136.69-8.63 137.16-6L137.16-6L136.03-6Q135.56-7.78 133.45-7.83L133.45-7.83Q130.78-7.64 130.64-4.31L130.64-4.31Q130.64-0.75 133.50-0.75L133.50-0.75Q134.53-0.75 135.28-1.31L135.28-1.31Q136.22-2.06 136.17-3.61L136.17-3.61Z" transform="translate(-0.890625, 8.8125)"></path></g></g></g></g></g><defs v-gra="od"></defs></svg>